<svg version="1.1" id="Layer_1" xmlns="http://www.w3.org/2000/svg" xmlns:xlink="http://www.w3.org/1999/xlink" x="0px" y="0px"
	 width="100%" viewBox="0 0 513 256" enable-background="new 0 0 513 256" xml:space="preserve">
<path fill="#212429" opacity="1.000000" stroke="none" 
	d="
M340.000000,257.000000 
	C226.666672,257.000000 113.833336,257.000000 1.000000,257.000000 
	C1.000000,171.666672 1.000000,86.333336 1.000000,1.000000 
	C172.000000,1.000000 343.000000,1.000000 514.000000,1.000000 
	C514.000000,86.333336 514.000000,171.666672 514.000000,257.000000 
	C456.166656,257.000000 398.333344,257.000000 340.000000,257.000000 
M225.998077,128.999847 
	C225.998077,128.999847 226.004166,128.986206 226.017487,128.243652 
	C224.319611,126.887352 222.621719,125.531052 220.848679,124.167358 
	C220.848679,124.167358 220.822571,124.096504 220.783813,123.391220 
	C215.141327,116.661240 194.845535,117.858322 189.782166,123.078102 
	C189.492050,123.377182 189.530472,123.994957 189.177353,124.227829 
	C189.177353,124.227829 189.378754,124.496834 188.678329,124.298553 
	C187.901962,125.001221 187.125580,125.703896 186.133804,126.254425 
	C186.133804,126.254425 186.315216,126.445831 185.585831,126.096771 
	C183.644150,120.042755 179.080765,119.513847 173.621765,119.942032 
	C169.622070,120.255760 168.000259,121.863701 168.010773,125.794678 
	C168.068909,147.526260 168.004501,169.258270 168.121567,190.989365 
	C168.128464,192.270615 169.350647,193.545319 170.594269,194.963623 
	C170.787491,195.019638 170.980728,195.075668 171.768677,195.618179 
	C175.106247,195.410385 178.443817,195.202591 181.869751,194.831909 
	C181.869751,194.831909 182.055054,194.835327 182.813995,194.729065 
	C183.190170,193.873932 183.891281,193.019989 183.894424,192.163483 
	C183.954102,175.905151 183.944534,159.646484 183.892624,143.388062 
	C183.889587,142.437180 183.406036,141.487839 183.266907,140.247070 
	C183.266907,140.247070 183.562454,140.138702 184.212814,140.497131 
	C185.083954,139.606461 185.955093,138.715805 186.967499,137.996490 
	C186.967499,137.996490 186.841232,137.814667 187.597092,137.849243 
	C196.204865,133.727371 205.047470,132.489273 214.253204,135.731689 
	C214.253204,135.731689 214.304413,135.745361 214.163193,136.546097 
	C215.122513,144.193512 216.564255,151.818390 216.922760,159.493866 
	C217.403671,169.790161 216.969742,180.126846 217.136078,190.442825 
	C217.160004,191.926193 218.343338,193.390869 219.113937,194.848862 
	C219.113937,194.848862 219.156754,194.966080 219.687790,195.530350 
	C221.796432,195.683090 223.911652,196.010849 226.011612,195.932144 
	C227.637604,195.871216 229.244553,195.301758 231.060944,194.454025 
	C231.116806,194.281891 231.172684,194.109772 231.698120,193.272491 
	C231.773697,175.852448 232.041092,158.429092 231.740143,141.015549 
	C231.688690,138.038208 229.208939,135.102829 227.991745,132.052353 
	C227.991745,132.052353 227.839127,132.126511 227.950958,131.423553 
	C227.304504,130.614761 226.658051,129.805969 225.998077,128.999847 
M150.967789,43.032494 
	C150.967789,43.032494 150.920059,43.119114 150.366882,42.505642 
	C149.398727,42.337547 148.430710,42.023300 147.462418,42.022514 
	C114.685982,41.995800 81.909508,41.984913 49.133171,42.046341 
	C47.754734,42.048923 46.377632,42.764717 44.953094,43.539322 
	C44.953094,43.539322 44.896233,43.929058 44.987785,43.986130 
	C44.987785,43.986130 44.936039,43.891464 44.439312,44.064140 
	C44.350803,44.369896 44.262291,44.675652 44.043755,45.849422 
	C44.078377,47.887016 44.112999,49.924610 43.560467,52.086414 
	C43.416973,52.171101 43.242519,52.228935 43.139004,52.348293 
	C43.042305,52.459801 43.020897,52.636600 42.966347,52.784664 
	C44.614109,53.191654 46.259716,53.941536 47.909973,53.951912 
	C62.407619,54.043079 76.906837,54.080578 91.403778,53.943142 
	C94.807610,53.910873 96.082268,54.919674 96.073059,58.482765 
	C95.970482,98.144348 95.969460,137.806351 96.056702,177.467987 
	C96.064354,180.945694 94.937592,182.130966 91.450500,182.077957 
	C80.287735,181.908264 69.119629,181.926620 57.956902,182.093979 
	C56.276150,182.119186 54.613132,183.327728 52.434486,184.603104 
	C52.600010,187.742722 52.765537,190.882339 53.195755,194.780548 
	C54.049213,195.176468 54.902092,195.917175 55.756210,195.918594 
	C89.030678,195.974136 122.305267,195.962280 155.579834,195.958099 
	C155.745941,195.958069 155.931183,195.986404 156.075256,195.925385 
	C157.973511,195.121368 161.420273,194.399048 161.477173,193.472015 
	C161.671021,190.313492 160.669785,187.081604 159.625916,183.264328 
	C157.742218,182.845901 155.861130,182.078903 153.974426,182.064880 
	C140.325470,181.963486 126.673271,181.881180 113.027000,182.099411 
	C109.029289,182.163345 107.674736,180.867355 107.973289,176.943085 
	C108.476334,170.331039 108.852936,163.697311 108.943588,157.068054 
	C109.352852,127.138779 109.645645,97.207909 109.971947,67.277512 
	C110.002792,64.448036 110.162621,61.602192 109.927536,58.791973 
	C109.615959,55.067459 111.088852,53.861904 114.785141,53.931923 
	C125.101921,54.127346 135.425369,54.044777 145.744965,53.945629 
	C147.466812,53.929081 149.182602,53.279633 150.915527,52.893250 
	C150.915527,52.893250 150.932175,52.867264 151.510880,52.349609 
	C151.300919,49.259727 151.090973,46.169842 150.967789,43.032494 
M304.765503,176.792206 
	C305.172638,175.611877 305.928864,174.433167 305.934387,173.250961 
	C306.012970,156.480179 306.034760,139.708572 305.905243,122.938438 
	C305.894928,121.605194 304.666412,120.281357 303.398376,118.434677 
	C300.264954,118.608757 297.131500,118.782829 293.235138,119.207413 
	C292.824890,120.386375 292.062653,121.563766 292.057404,122.744537 
	C291.982635,139.514832 291.965454,156.285919 292.099121,173.055527 
	C292.109772,174.390472 293.335510,175.715729 294.603333,177.562195 
	C297.736969,177.390015 300.870575,177.217819 304.765503,176.792206 
M372.755890,130.321198 
	C371.169220,125.314415 368.299957,121.383728 363.246674,119.460854 
	C353.379547,115.706215 344.386536,117.927696 335.907257,124.256531 
	C335.466064,122.137085 335.145569,120.597473 334.869781,119.272491 
	C331.611023,119.272491 328.701324,119.272491 325.820007,119.272491 
	C325.820007,138.684723 325.820007,157.722336 325.820007,176.716843 
	C329.163544,176.716843 332.079773,176.716843 335.350403,176.716843 
	C335.350403,165.105881 335.346497,153.793365 335.351593,142.480850 
	C335.355896,132.978043 337.902069,129.780472 347.298035,127.449081 
	C355.352112,125.450638 360.660950,127.929428 363.781372,135.942368 
	C363.781372,149.492661 363.781372,163.042953 363.781372,176.825989 
	C367.704193,176.825989 370.776245,176.825989 374.157928,176.825989 
	C374.157928,165.844131 374.286377,155.072083 374.096069,144.305695 
	C374.017700,139.873428 373.253632,135.453293 372.755890,130.321198 
M252.547104,194.998199 
	C323.622009,194.998199 394.696930,194.998199 465.692871,194.998199 
	C465.692871,191.344345 465.692871,188.274216 465.692871,184.814697 
	C395.002838,184.814697 324.618652,184.814697 253.824951,184.814697 
	C253.824951,137.346451 253.824951,90.284729 253.824951,43.314865 
	C250.336411,43.314865 247.266739,43.314865 244.310562,43.314865 
	C244.310562,94.014122 244.310562,144.401962 244.310562,194.998260 
	C246.933990,194.998260 249.249283,194.998260 252.547104,194.998199 
M459.416473,119.998581 
	C439.672119,119.998581 419.927765,119.998581 400.324768,119.998581 
	C400.324768,123.692902 400.324768,126.762413 400.324768,129.688202 
	C422.374695,129.688202 444.099274,129.688202 465.670288,129.688202 
	C465.670288,126.299553 465.670288,123.230583 465.670288,119.998589 
	C463.691559,119.998589 462.041077,119.998589 459.416473,119.998581 
M450.496521,162.000977 
	C455.593567,162.000977 460.690613,162.000977 465.693054,162.000977 
	C465.693054,158.340195 465.693054,155.271317 465.693054,152.291626 
	C443.663849,152.291626 421.942291,152.291626 400.307129,152.291626 
	C400.307129,155.660446 400.307129,158.729294 400.307129,162.000977 
	C416.907745,162.000977 433.202911,162.000977 450.496521,162.000977 
z"/>
<path fill="#FFFFFF" opacity="1.000000" stroke="none" 
	d="
M252.055847,194.998230 
	C249.249283,194.998260 246.933990,194.998260 244.310562,194.998260 
	C244.310562,144.401962 244.310562,94.014122 244.310562,43.314865 
	C247.266739,43.314865 250.336411,43.314865 253.824951,43.314865 
	C253.824951,90.284729 253.824951,137.346451 253.824951,184.814697 
	C324.618652,184.814697 395.002838,184.814697 465.692871,184.814697 
	C465.692871,188.274216 465.692871,191.344345 465.692871,194.998199 
	C394.696930,194.998199 323.622009,194.998199 252.055847,194.998230 
z"/>
<path fill="#F9FE04" opacity="1.000000" stroke="none" 
	d="
M44.147625,51.962204 
	C44.112999,49.924610 44.078377,47.887016 44.292397,45.277618 
	C44.764885,44.479084 44.896553,44.207634 44.936039,43.891464 
	C44.936039,43.891464 44.987785,43.986130 45.416710,43.988255 
	C78.746513,43.992458 111.647392,44.001728 144.548264,43.984173 
	C147.459061,43.982620 150.140045,43.583603 150.111099,48.085304 
	C150.081238,52.731899 147.134384,51.996510 144.382278,52.005970 
	C132.917389,52.045391 121.452415,52.061165 109.691376,52.103561 
	C108.937866,52.459145 108.480469,52.796780 108.026344,53.078812 
	C108.029625,53.023212 108.140358,53.035297 107.782501,53.212738 
	C106.964897,55.413418 106.108528,57.435783 106.104050,59.460033 
	C106.016777,98.902405 106.018021,138.345001 106.056107,177.787506 
	C106.057816,179.554550 106.578667,181.321091 106.916870,183.290924 
	C106.976036,183.493958 107.056915,183.909134 107.322556,184.233795 
	C109.383102,184.726944 111.177612,185.036469 112.972977,185.041473 
	C126.604858,185.079575 140.237442,185.122787 153.868546,185.010406 
	C157.349426,184.981705 159.300400,185.908173 158.901123,189.803833 
	C158.504410,193.674637 155.618713,192.910583 153.268295,192.913635 
	C121.682129,192.954620 90.095879,192.962982 58.509747,192.913986 
	C56.732597,192.911224 54.956337,192.339294 53.108612,191.607697 
	C53.084854,189.465271 53.132149,187.747421 53.550903,185.864410 
	C55.720325,185.480896 57.517353,185.083237 59.316429,185.073746 
	C69.801598,185.018387 80.287537,185.094788 90.772446,185.019211 
	C92.529488,185.006561 94.282753,184.468613 96.231354,184.100052 
	C96.424942,184.026718 96.827591,183.930344 97.119781,183.638306 
	C97.626381,174.955811 97.964684,166.565994 98.008934,158.174622 
	C98.035683,153.103714 97.606117,148.030380 97.344635,142.646957 
	C97.370270,141.924347 97.432846,141.512939 97.818176,140.907562 
	C98.397659,139.117493 98.869591,137.522415 98.877296,135.925079 
	C98.942917,122.319504 98.924187,108.713524 98.953094,94.628616 
	C99.005852,81.953148 99.078484,69.756500 99.012947,57.560604 
	C99.004807,56.044224 98.263626,54.531776 97.655365,52.993317 
	C97.448624,52.969120 97.058563,52.823650 96.709137,52.593208 
	C79.195541,52.244846 62.031368,52.126930 44.687477,51.994625 
	C44.507759,51.980236 44.147625,51.962204 44.147625,51.962204 
z"/>
<path fill="#F6FC0E" opacity="1.000000" stroke="none" 
	d="
M231.228546,193.937637 
	C231.172684,194.109772 231.116806,194.281891 230.514618,194.696777 
	C226.364456,194.948380 222.760605,194.957230 219.156754,194.966080 
	C219.156754,194.966080 219.113937,194.848862 219.021317,194.403320 
	C218.918274,179.813492 219.022308,165.667740 218.840561,151.525665 
	C218.768768,145.937485 218.818390,140.136963 214.304413,135.745361 
	C214.304413,135.745361 214.253204,135.731689 214.062683,135.410172 
	C205.906631,130.027008 195.246521,131.102066 186.841232,137.814667 
	C186.841232,137.814667 186.967499,137.996490 186.603302,137.957458 
	C185.346893,138.658539 184.454666,139.398621 183.562454,140.138702 
	C183.562454,140.138702 183.266907,140.247070 182.906998,140.642212 
	C182.395508,142.667618 182.116531,144.297516 182.112045,145.928192 
	C182.067154,162.230499 182.067474,178.532928 182.055054,194.835327 
	C182.055054,194.835327 181.869751,194.831909 181.395157,194.886810 
	C177.671692,195.005035 174.422821,195.068359 171.173950,195.131683 
	C170.980728,195.075668 170.787491,195.019638 170.299805,194.442139 
	C170.005341,170.013885 170.005341,146.107101 170.005341,122.286285 
	C174.426529,122.286285 178.054123,122.286285 181.906708,122.286285 
	C182.043732,124.573479 182.167252,126.635071 182.341965,129.551254 
	C184.097275,128.179321 185.206253,127.312584 186.315216,126.445831 
	C186.315216,126.445831 186.133804,126.254425 186.532867,126.242943 
	C187.747528,125.653252 188.563141,125.075043 189.378754,124.496841 
	C189.378754,124.496834 189.177353,124.227829 189.650848,124.247574 
	C200.328354,119.049835 210.563858,119.486084 220.822571,124.096504 
	C220.822571,124.096504 220.848679,124.167358 221.031265,124.451202 
	C222.810623,126.152100 224.407394,127.569153 226.004166,128.986206 
	C226.004166,128.986206 225.998077,128.999847 226.060791,129.305252 
	C226.695389,130.449280 227.267258,131.287903 227.839127,132.126511 
	C227.839127,132.126511 227.991745,132.052353 227.964325,132.481720 
	C228.961899,138.766327 230.676682,144.598251 230.875473,150.481415 
	C231.364502,164.954269 231.156326,179.450699 231.228546,193.937637 
z"/>
<path fill="#F2F70C" opacity="1.000000" stroke="none" 
	d="
M363.835938,135.170959 
	C360.660950,127.929428 355.352112,125.450638 347.298035,127.449081 
	C337.902069,129.780472 335.355896,132.978043 335.351593,142.480850 
	C335.346497,153.793365 335.350403,165.105881 335.350403,176.716843 
	C332.079773,176.716843 329.163544,176.716843 325.820007,176.716843 
	C325.820007,157.722336 325.820007,138.684723 325.820007,119.272491 
	C328.701324,119.272491 331.611023,119.272491 334.869781,119.272491 
	C335.145569,120.597473 335.466064,122.137085 335.907257,124.256531 
	C344.386536,117.927696 353.379547,115.706215 363.246674,119.460854 
	C368.299957,121.383728 371.169220,125.314415 372.560577,130.967087 
	C372.580933,144.868622 372.771606,158.124756 373.032562,171.379517 
	C373.087524,174.169952 372.830566,176.121124 369.145203,176.177002 
	C365.135162,176.237808 365.025391,174.035156 365.044830,171.093185 
	C365.112976,160.791733 365.113708,150.488861 364.998047,140.188126 
	C364.979218,138.511597 364.241425,136.843140 363.835938,135.170959 
z"/>
<path fill="#FFFFFF" opacity="1.000000" stroke="none" 
	d="
M459.903503,119.998581 
	C462.041077,119.998589 463.691559,119.998589 465.670288,119.998589 
	C465.670288,123.230583 465.670288,126.299553 465.670288,129.688202 
	C444.099274,129.688202 422.374695,129.688202 400.324768,129.688202 
	C400.324768,126.762413 400.324768,123.692902 400.324768,119.998581 
	C419.927765,119.998581 439.672119,119.998581 459.903503,119.998581 
z"/>
<path fill="#FFFFFF" opacity="1.000000" stroke="none" 
	d="
M449.997314,162.000977 
	C433.202911,162.000977 416.907745,162.000977 400.307129,162.000977 
	C400.307129,158.729294 400.307129,155.660446 400.307129,152.291626 
	C421.942291,152.291626 443.663849,152.291626 465.693054,152.291626 
	C465.693054,155.271317 465.693054,158.340195 465.693054,162.000977 
	C460.690613,162.000977 455.593567,162.000977 449.997314,162.000977 
z"/>
<path fill="#303206" opacity="1.000000" stroke="none" 
	d="
M107.056915,183.909134 
	C107.056915,183.909134 106.976036,183.493958 106.988823,182.817108 
	C107.381195,139.105255 107.760780,96.070282 108.140358,53.035297 
	C108.140358,53.035297 108.029625,53.023212 108.361824,53.038036 
	C109.136208,52.983566 109.578392,52.914276 110.484932,52.901146 
	C124.266586,52.945755 137.583878,52.934200 150.901184,52.922646 
	C149.182602,53.279633 147.466812,53.929081 145.744965,53.945629 
	C135.425369,54.044777 125.101921,54.127346 114.785141,53.931923 
	C111.088852,53.861904 109.615959,55.067459 109.927536,58.791973 
	C110.162621,61.602192 110.002792,64.448036 109.971947,67.277512 
	C109.645645,97.207909 109.352852,127.138779 108.943588,157.068054 
	C108.852936,163.697311 108.476334,170.331039 107.973289,176.943085 
	C107.674736,180.867355 109.029289,182.163345 113.027000,182.099411 
	C126.673271,181.881180 140.325470,181.963486 153.974426,182.064880 
	C155.861130,182.078903 157.742218,182.845901 159.821899,183.623413 
	C160.017868,183.982498 159.912018,184.088257 159.450241,184.053467 
	C141.677948,183.982162 124.367432,183.945648 107.056915,183.909134 
z"/>
<path fill="#303206" opacity="1.000000" stroke="none" 
	d="
M97.058563,52.823650 
	C97.058563,52.823650 97.448624,52.969120 97.718559,53.457985 
	C97.982620,66.264908 97.976746,78.582970 97.832245,91.289368 
	C97.627563,108.152313 97.561493,124.626915 97.495422,141.101517 
	C97.432846,141.512939 97.370270,141.924347 97.225632,143.106934 
	C97.038239,157.228851 96.932915,170.579590 96.827591,183.930344 
	C96.827591,183.930344 96.424942,184.026718 95.762184,184.030975 
	C81.098442,184.055862 67.097458,184.076477 53.059502,184.067657 
	C53.022526,184.038239 52.941914,183.988892 52.941914,183.988892 
	C54.613132,183.327728 56.276150,182.119186 57.956902,182.093979 
	C69.119629,181.926620 80.287735,181.908264 91.450500,182.077957 
	C94.937592,182.130966 96.064354,180.945694 96.056702,177.467987 
	C95.969460,137.806351 95.970482,98.144348 96.073059,58.482765 
	C96.082268,54.919674 94.807610,53.910873 91.403778,53.943142 
	C76.906837,54.080578 62.407619,54.043079 47.909973,53.951912 
	C46.259716,53.941536 44.614109,53.191654 42.966347,52.784664 
	C43.020897,52.636600 43.042305,52.459801 43.139004,52.348293 
	C43.242519,52.228935 43.416973,52.171101 43.854046,52.024307 
	C44.147625,51.962204 44.507759,51.980236 44.929077,52.366081 
	C62.586452,52.775833 79.822510,52.799744 97.058563,52.823650 
z"/>
<path fill="#303206" opacity="1.000000" stroke="none" 
	d="
M160.071304,183.930115 
	C160.669785,187.081604 161.671021,190.313492 161.477173,193.472015 
	C161.420273,194.399048 157.973511,195.121368 156.075256,195.925385 
	C155.931183,195.986404 155.745941,195.958069 155.579834,195.958099 
	C122.305267,195.962280 89.030678,195.974136 55.756210,195.918594 
	C54.902092,195.917175 54.049213,195.176468 53.106743,194.373535 
	C53.017727,193.966507 53.098259,193.900986 53.559280,193.938065 
	C89.230392,193.975143 124.440483,193.975143 159.912018,193.975143 
	C159.912018,190.340851 159.912018,187.214554 159.912018,184.088257 
	C159.912018,184.088257 160.017868,183.982498 160.071304,183.930115 
z"/>
<path fill="#3B3D07" opacity="1.000000" stroke="none" 
	d="
M185.950531,126.271301 
	C185.206253,127.312584 184.097275,128.179321 182.341965,129.551254 
	C182.167252,126.635071 182.043732,124.573479 181.906708,122.286285 
	C178.054123,122.286285 174.426529,122.286285 170.005341,122.286285 
	C170.005341,146.107101 170.005341,170.013885 170.006317,194.371857 
	C169.350647,193.545319 168.128464,192.270615 168.121567,190.989365 
	C168.004501,169.258270 168.068909,147.526260 168.010773,125.794678 
	C168.000259,121.863701 169.622070,120.255760 173.621765,119.942032 
	C179.080765,119.513847 183.644150,120.042755 185.950531,126.271301 
z"/>
<path fill="#F3F63C" opacity="1.000000" stroke="none" 
	d="
M150.908356,52.907948 
	C137.583878,52.934200 124.266586,52.945755 110.474686,52.711391 
	C110.000076,52.465473 109.987473,52.085613 109.987473,52.085613 
	C121.452415,52.061165 132.917389,52.045391 144.382278,52.005970 
	C147.134384,51.996510 150.081238,52.731899 150.111099,48.085304 
	C150.140045,43.583603 147.459061,43.982620 144.548264,43.984173 
	C111.647392,44.001728 78.746513,43.992458 45.370934,43.959717 
	C44.896233,43.929058 44.953094,43.539322 45.443207,43.283154 
	C80.928902,43.057697 115.924477,43.088406 150.920059,43.119114 
	C150.920059,43.119114 150.967789,43.032494 150.973022,43.498096 
	C150.962891,46.931553 150.947540,49.899410 150.932175,52.867264 
	C150.932175,52.867264 150.915527,52.893250 150.908356,52.907948 
z"/>
<path fill="#DADF44" opacity="1.000000" stroke="none" 
	d="
M363.808655,135.556671 
	C364.241425,136.843140 364.979218,138.511597 364.998047,140.188126 
	C365.113708,150.488861 365.112976,160.791733 365.044830,171.093185 
	C365.025391,174.035156 365.135162,176.237808 369.145203,176.177002 
	C372.830566,176.121124 373.087524,174.169952 373.032562,171.379517 
	C372.771606,158.124756 372.580933,144.868622 372.583374,131.320312 
	C373.253632,135.453293 374.017700,139.873428 374.096069,144.305695 
	C374.286377,155.072083 374.157928,165.844131 374.157928,176.825989 
	C370.776245,176.825989 367.704193,176.825989 363.781372,176.825989 
	C363.781372,163.042953 363.781372,149.492661 363.808655,135.556671 
z"/>
<path fill="#3B3D07" opacity="1.000000" stroke="none" 
	d="
M214.233795,136.145721 
	C218.818390,140.136963 218.768768,145.937485 218.840561,151.525665 
	C219.022308,165.667740 218.918274,179.813492 218.959412,194.410980 
	C218.343338,193.390869 217.160004,191.926193 217.136078,190.442825 
	C216.969742,180.126846 217.403671,169.790161 216.922760,159.493866 
	C216.564255,151.818390 215.122513,144.193512 214.233795,136.145721 
z"/>
<path fill="#272C06" opacity="1.000000" stroke="none" 
	d="
M293.996582,177.045486 
	C293.335510,175.715729 292.109772,174.390472 292.099121,173.055527 
	C291.965454,156.285919 291.982635,139.514832 292.057404,122.744537 
	C292.062653,121.563766 292.824890,120.386375 293.634094,119.113861 
	C294.033081,119.020302 294.077484,119.077477 294.040100,119.539810 
	C294.026459,138.976807 294.050201,157.951477 294.052307,176.954483 
	C294.030670,176.982819 293.996582,177.045486 293.996582,177.045486 
z"/>
<path fill="#272C06" opacity="1.000000" stroke="none" 
	d="
M304.003998,118.953148 
	C304.666412,120.281357 305.894928,121.605194 305.905243,122.938438 
	C306.034760,139.708572 306.012970,156.480179 305.934387,173.250961 
	C305.928864,174.433167 305.172638,175.611877 304.367157,176.886993 
	C303.968811,176.981766 303.923981,176.924088 303.959045,176.461563 
	C303.970276,157.025238 303.946472,138.051453 303.945312,119.048058 
	C303.968018,119.018463 304.003998,118.953148 304.003998,118.953148 
z"/>
<path fill="#3E4003" opacity="1.000000" stroke="none" 
	d="
M182.434509,194.782196 
	C182.067474,178.532928 182.067154,162.230499 182.112045,145.928192 
	C182.116531,144.297516 182.395508,142.667618 182.846588,140.787567 
	C183.406036,141.487839 183.889587,142.437180 183.892624,143.388062 
	C183.944534,159.646484 183.954102,175.905151 183.894424,192.163483 
	C183.891281,193.019989 183.190170,193.873932 182.434509,194.782196 
z"/>
<path fill="#282C00" opacity="1.000000" stroke="none" 
	d="
M150.643463,42.812378 
	C115.924477,43.088406 80.928902,43.057697 45.466614,43.087616 
	C46.377632,42.764717 47.754734,42.048923 49.133171,42.046341 
	C81.909508,41.984913 114.685982,41.995800 147.462418,42.022514 
	C148.430710,42.023300 149.398727,42.337547 150.643463,42.812378 
z"/>
<path fill="#3B3D07" opacity="1.000000" stroke="none" 
	d="
M231.463318,193.605072 
	C231.156326,179.450699 231.364502,164.954269 230.875473,150.481415 
	C230.676682,144.598251 228.961899,138.766327 227.893951,132.529572 
	C229.208939,135.102829 231.688690,138.038208 231.740143,141.015549 
	C232.041092,158.429092 231.773697,175.852448 231.463318,193.605072 
z"/>
<path fill="#3B3D07" opacity="1.000000" stroke="none" 
	d="
M220.803192,123.743866 
	C210.563858,119.486084 200.328354,119.049835 189.770172,124.365875 
	C189.530472,123.994957 189.492050,123.377182 189.782166,123.078102 
	C194.845535,117.858322 215.141327,116.661240 220.803192,123.743866 
z"/>
<path fill="#3E4003" opacity="1.000000" stroke="none" 
	d="
M187.219162,137.831955 
	C195.246521,131.102066 205.906631,130.027008 214.061401,135.383698 
	C205.047470,132.489273 196.204865,133.727371 187.219162,137.831955 
z"/>
<path fill="#3B3D07" opacity="1.000000" stroke="none" 
	d="
M219.422272,195.248215 
	C222.760605,194.957230 226.364456,194.948380 230.414139,194.948944 
	C229.244553,195.301758 227.637604,195.871216 226.011612,195.932144 
	C223.911652,196.010849 221.796432,195.683090 219.422272,195.248215 
z"/>
<path fill="#3B3D07" opacity="1.000000" stroke="none" 
	d="
M226.010834,128.614929 
	C224.407394,127.569153 222.810623,126.152100 221.068848,124.454903 
	C222.621719,125.531052 224.319611,126.887352 226.010834,128.614929 
z"/>
<path fill="#3E4003" opacity="1.000000" stroke="none" 
	d="
M171.471313,195.374939 
	C174.422821,195.068359 177.671692,195.005035 181.350983,194.968262 
	C178.443817,195.202591 175.106247,195.410385 171.471313,195.374939 
z"/>
<path fill="#282C00" opacity="1.000000" stroke="none" 
	d="
M151.221527,52.608437 
	C150.947540,49.899410 150.962891,46.931553 150.929642,43.521828 
	C151.090973,46.169842 151.300919,49.259727 151.221527,52.608437 
z"/>
<path fill="#303206" opacity="1.000000" stroke="none" 
	d="
M53.179443,186.029572 
	C53.132149,187.747421 53.084854,189.465271 53.040413,191.914673 
	C53.061600,193.064484 53.079929,193.482727 53.098259,193.900986 
	C53.098259,193.900986 53.017727,193.966507 52.974396,193.994232 
	C52.765537,190.882339 52.600010,187.742722 52.688202,184.295990 
	C52.941914,183.988892 53.022526,184.038239 53.025707,184.390900 
	C53.079075,185.172226 53.129261,185.600891 53.179443,186.029572 
z"/>
<path fill="#272C06" opacity="1.000000" stroke="none" 
	d="
M303.986511,177.013702 
	C300.870575,177.217819 297.736969,177.390015 294.299957,177.303833 
	C293.996582,177.045486 294.030670,176.982819 294.364288,176.985779 
	C295.110413,176.936981 295.522888,176.885193 296.359863,176.904938 
	C298.213745,176.928436 299.643158,176.880386 301.424164,176.902802 
	C302.491821,176.956863 303.207886,176.940475 303.923981,176.924088 
	C303.923981,176.924088 303.968811,176.981766 303.986511,177.013702 
z"/>
<path fill="#272C06" opacity="1.000000" stroke="none" 
	d="
M294.015564,118.988602 
	C297.131500,118.782829 300.264954,118.608757 303.701172,118.693909 
	C304.003998,118.953148 303.968018,119.018463 303.499268,119.015488 
	C300.046204,119.034172 297.061829,119.055824 294.077484,119.077477 
	C294.077484,119.077477 294.033081,119.020302 294.015564,118.988602 
z"/>
<path fill="#3E4003" opacity="1.000000" stroke="none" 
	d="
M183.887634,140.317917 
	C184.454666,139.398621 185.346893,138.658539 186.532669,137.871796 
	C185.955093,138.715805 185.083954,139.606461 183.887634,140.317917 
z"/>
<path fill="#3B3D07" opacity="1.000000" stroke="none" 
	d="
M189.028534,124.397697 
	C188.563141,125.075043 187.747528,125.653252 186.640564,126.319016 
	C187.125580,125.703896 187.901962,125.001221 189.028534,124.397697 
z"/>
<path fill="#3B3D07" opacity="1.000000" stroke="none" 
	d="
M227.895050,131.775024 
	C227.267258,131.287903 226.695389,130.449280 226.067566,129.303909 
	C226.658051,129.805969 227.304504,130.614761 227.895050,131.775024 
z"/>
<path fill="#F3F63C" opacity="1.000000" stroke="none" 
	d="
M44.687675,43.977802 
	C44.896553,44.207634 44.764885,44.479084 44.357410,44.843613 
	C44.262291,44.675652 44.350803,44.369896 44.687675,43.977802 
z"/>
<path fill="#E1E631" opacity="1.000000" stroke="none" 
	d="
M107.782501,53.212738 
	C107.760780,96.070282 107.381195,139.105255 106.929657,182.614059 
	C106.578667,181.321091 106.057816,179.554550 106.056107,177.787506 
	C106.018021,138.345001 106.016777,98.902405 106.104050,59.460033 
	C106.108528,57.435783 106.964897,55.413418 107.782501,53.212738 
z"/>
<path fill="#EDF457" opacity="1.000000" stroke="none" 
	d="
M53.559280,193.938065 
	C53.079929,193.482727 53.061600,193.064484 53.111465,192.339264 
	C54.956337,192.339294 56.732597,192.911224 58.509747,192.913986 
	C90.095879,192.962982 121.682129,192.954620 153.268295,192.913635 
	C155.618713,192.910583 158.504410,193.674637 158.901123,189.803833 
	C159.300400,185.908173 157.349426,184.981705 153.868546,185.010406 
	C140.237442,185.122787 126.604858,185.079575 112.972977,185.041473 
	C111.177612,185.036469 109.383102,184.726944 107.322556,184.233795 
	C124.367432,183.945648 141.677948,183.982162 159.450241,184.053467 
	C159.912018,187.214554 159.912018,190.340851 159.912018,193.975143 
	C124.440483,193.975143 89.230392,193.975143 53.559280,193.938065 
z"/>
<path fill="#D2D621" opacity="1.000000" stroke="none" 
	d="
M97.818176,140.907562 
	C97.561493,124.626915 97.627563,108.152313 97.906990,91.652771 
	C98.390480,92.787781 98.660606,93.947716 98.930733,95.107658 
	C98.924187,108.713524 98.942917,122.319504 98.877296,135.925079 
	C98.869591,137.522415 98.397659,139.117493 97.818176,140.907562 
z"/>
<path fill="#F4F839" opacity="1.000000" stroke="none" 
	d="
M96.709137,52.593208 
	C79.822510,52.799744 62.586452,52.775833 45.108795,52.380470 
	C62.031368,52.126930 79.195541,52.244846 96.709137,52.593208 
z"/>
<path fill="#EEF358" opacity="1.000000" stroke="none" 
	d="
M53.550900,185.864410 
	C53.129261,185.600891 53.079075,185.172226 53.062683,184.420319 
	C67.097458,184.076477 81.098442,184.055862 95.568588,184.104309 
	C94.282753,184.468613 92.529488,185.006561 90.772446,185.019211 
	C80.287537,185.094788 69.801598,185.018387 59.316429,185.073746 
	C57.517353,185.083237 55.720325,185.480896 53.550900,185.864410 
z"/>
<path fill="#F0F645" opacity="1.000000" stroke="none" 
	d="
M98.953094,94.628616 
	C98.660606,93.947716 98.390480,92.787781 98.045609,91.264435 
	C97.976746,78.582970 97.982620,66.264908 97.925301,53.482178 
	C98.263626,54.531776 99.004807,56.044224 99.012947,57.560604 
	C99.078484,69.756500 99.005852,81.953148 98.953094,94.628616 
z"/>
<path fill="#D2D621" opacity="1.000000" stroke="none" 
	d="
M97.119781,183.638306 
	C96.932915,170.579590 97.038239,157.228851 97.262573,143.418121 
	C97.606117,148.030380 98.035683,153.103714 98.008934,158.174622 
	C97.964684,166.565994 97.626381,174.955811 97.119781,183.638306 
z"/>
<path fill="#E1E631" opacity="1.000000" stroke="none" 
	d="
M109.691376,52.103561 
	C109.987473,52.085613 110.000076,52.465473 110.010330,52.655228 
	C109.578392,52.914276 109.136208,52.983566 108.358543,53.093636 
	C108.480469,52.796780 108.937866,52.459145 109.691376,52.103561 
z"/>
<path fill="#EEF356" opacity="1.000000" stroke="none" 
	d="
M294.040100,119.539810 
	C297.061829,119.055824 300.046204,119.034172 303.476593,119.045090 
	C303.946472,138.051453 303.970276,157.025238 303.959045,176.461563 
	C303.207886,176.940475 302.491821,176.956863 301.667450,176.615204 
	C302.023529,174.757645 302.882568,173.260452 302.891449,171.758224 
	C302.984741,155.970642 302.889801,140.181915 302.982849,124.394302 
	C303.000671,121.368294 302.346802,119.850502 298.878784,119.835815 
	C295.127380,119.819931 295.036530,121.871407 295.045532,124.632263 
	C295.097015,140.420258 295.036041,156.208618 295.094086,171.996567 
	C295.100006,173.609848 295.642120,175.221176 295.935425,176.833420 
	C295.522888,176.885193 295.110413,176.936981 294.385925,176.957458 
	C294.050201,157.951477 294.026459,138.976807 294.040100,119.539810 
z"/>
<path fill="#F9FE08" opacity="1.000000" stroke="none" 
	d="
M296.359863,176.904938 
	C295.642120,175.221176 295.100006,173.609848 295.094086,171.996567 
	C295.036041,156.208618 295.097015,140.420258 295.045532,124.632263 
	C295.036530,121.871407 295.127380,119.819931 298.878784,119.835815 
	C302.346802,119.850502 303.000671,121.368294 302.982849,124.394302 
	C302.889801,140.181915 302.984741,155.970642 302.891449,171.758224 
	C302.882568,173.260452 302.023529,174.757645 301.315887,176.544754 
	C299.643158,176.880386 298.213745,176.928436 296.359863,176.904938 
z"/>
</svg>